Coordinates
version=1
nRows=26
nColumns=24
inDegrees=yes

Units are S.I. units (second, meters, Newtons, ...)
Angles are in degrees.

endheader
time	pelvis_tilt	pelvis_list	pelvis_rotation	pelvis_tx	pelvis_ty	pelvis_tz	hip_flexion_r	hip_adduction_r	hip_rotation_r	knee_angle_r	ankle_angle_r	subtalar_angle_r	mtp_angle_r	hip_flexion_l	hip_adduction_l	hip_rotation_l	knee_angle_l	ankle_angle_l	subtalar_angle_l	mtp_angle_l	lumbar_extension	lumbar_bending	lumbar_rotation
      1.06700000	      4.65795282	     -2.54254750	     -3.53473608	     -0.14714426	      0.98770129	      0.33775375	    -21.66941963	      5.63122687	      0.54440486	     -6.11925750	     11.30646365	     -5.50861145	     -4.36210988	     17.32481249	     -1.55006612	     -4.70880403	      0.21357940	      0.12626623	     -2.76892861	      0.09487989	     -7.97376087	      5.70974810	      6.98345896
      1.07116667	      4.60246912	     -2.48992869	     -3.58533518	     -0.14131876	      0.98706809	      0.33750370	    -21.71678102	      5.50573381	      0.43752681	     -6.58286607	     11.36238017	     -5.25334123	     -4.19509647	     17.25729147	     -1.43574751	     -4.67365956	      0.35193897	     -0.08854920	     -3.10455371	      0.19805035	     -7.87497880	      5.65084719	      7.15864117
      1.07533333	      4.55530106	     -2.42061088	     -3.62445337	     -0.13547018	      0.98651072	      0.33727410	    -21.79253250	      5.38007775	      0.43822578	     -6.99952982	     11.26437139	     -5.30610940	     -4.16357247	     17.25002786	     -1.31431754	     -4.78718726	      0.27929418	     -0.22726864	     -3.19316948	      0.21784574	     -7.79659796	      5.57283374	      7.14978081
      1.07950000	      4.46141635	     -2.33654994	     -3.65767919	     -0.12959007	      0.98594661	      0.33704040	    -21.78286576	      5.24524121	      0.41935662	     -7.48853473	     11.24539511	     -5.29698914	     -4.05897777	     17.28068337	     -1.17817385	     -4.79206140	      0.17078098	     -0.50013371	     -3.43638894	      0.28927598	     -7.64920087	      5.44455376	      7.20591619
      1.08366667	      4.43420634	     -2.23710123	     -3.67370463	     -0.12368939	      0.98550759	      0.33673913	    -21.81307735	      5.08284451	      0.26675783	     -8.02082762	     11.11231558	     -5.10962158	     -3.29426451	     17.23025571	     -1.01037743	     -4.71059332	      0.02418691	     -0.84033478	     -3.92397642	      0.85959996	     -7.59357629	      5.33583760	      7.22324615
      1.08783333	      4.32489327	     -2.13689977	     -3.69966033	     -0.11776222	      0.98503582	      0.33650012	    -21.75727142	      4.94277513	      0.30118223	     -8.55824264	     11.01695058	     -5.27521001	     -3.21449168	     17.33670704	     -0.86700420	     -4.78042887	     -0.32386424	     -1.05792187	     -4.08215985	      0.91571614	     -7.42680695	      5.20540675	      7.25547776
      1.09200000	      4.20563802	     -2.05590999	     -3.69815079	     -0.11183227	      0.98459823	      0.33621193	    -21.66817975	      4.83267108	      0.30376314	     -9.13254644	     10.88364526	     -5.41045112	     -3.04921445	     17.46171995	     -0.73475300	     -4.74247887	     -0.72815589	     -1.37017147	     -4.44812109	      1.03898954	     -7.24396014	      5.11254759	      7.28924325
      1.09616667	      4.15196551	     -1.92406901	     -3.70494653	     -0.10582044	      0.98430427	      0.33594775	    -21.63157513	      4.66163911	      0.27242399	     -9.73629767	     10.66996045	     -5.55794250	     -2.96665879	     17.50174767	     -0.55319684	     -4.76495439	     -1.15290306	     -1.66632629	     -4.68623548	      1.10140245	     -7.12675726	      4.92857797	      7.28578532
      1.10033333	      4.02232181	     -1.82345527	     -3.67307123	     -0.09983979	      0.98395623	      0.33560231	    -21.49054045	      4.54518010	      0.25850177	    -10.37600607	     10.47579048	     -5.70204807	     -2.76389003	     17.64995321	     -0.39263143	     -4.64055913	     -1.65377281	     -2.06652357	     -5.17659751	      1.25316448	     -6.93642894	      4.82514290	      7.28047208
      1.10450000	      3.92345787	     -1.70390995	     -3.64573615	     -0.09381150	      0.98370699	      0.33527563	    -21.35518899	      4.40591426	      0.22238787	    -11.06276059	     10.21339367	     -5.87915914	     -2.52187732	     17.76254995	     -0.21651356	     -4.55613231	     -2.18518823	     -2.45967634	     -5.59815414	      1.42971017	     -6.76739868	      4.67692919	      7.25872444
      1.10866667	      3.82781203	     -1.58171822	     -3.60681584	     -0.08775822	      0.98351419	      0.33492876	    -21.19962187	      4.26930866	      0.18937357	    -11.78921495	      9.90696736	     -6.08105519	     -2.23011957	     17.87457737	     -0.03597217	     -4.45303732	     -2.74776150	     -2.85568169	     -6.01470995	      1.63194468	     -6.60110833	      4.52453297	      7.22387741
      1.11283333	      3.72438244	     -1.45917188	     -3.56211140	     -0.08168964	      0.98336778	      0.33456449	    -21.00470064	      4.13548259	      0.15114211	    -12.56528811	      9.55701517	     -6.30974091	     -1.87403601	     18.00049795	      0.14488005	     -4.34062409	     -3.34411393	     -3.25542662	     -6.43950185	      1.86117259	     -6.42541682	      4.37961512	      7.17732222
      1.11700000	      3.62763366	     -1.32956744	     -3.50348715	     -0.07559341	      0.98328060	      0.33418466	    -20.79232420	      4.00004808	      0.10858663	    -13.38089259	      9.15158689	     -6.55666436	     -1.47939645	     18.12095725	      0.33485199	     -4.21888287	     -3.96087249	     -3.66400849	     -6.83827140	      2.09284962	     -6.25627997	      4.21681238	      7.12524750
      1.12116667	      3.61992690	     -1.16556822	     -3.42627057	     -0.06943294	      0.98334336	      0.33376003	    -20.65495633	      3.81591159	     -0.04860747	    -14.20742899	      8.54794137	     -6.82412009	      3.92099945	     18.12632424	      0.57186853	     -4.09642918	     -4.55396531	     -4.06868098	     -7.24537651	      4.86104730	     -6.18594047	      4.00660202	      7.09402236
      1.12533333	      3.55381768	     -1.00125132	     -3.38254884	     -0.06326992	      0.98340665	      0.33340477	    -20.41014381	      3.63718327	     -0.09338467	    -15.13071585	      8.09065729	     -7.07522535	      3.94781275	     18.21165108	      0.78392256	     -4.09350187	     -5.20177483	     -4.43518315	     -7.43748927	      4.84179014	     -6.04043092	      3.78799481	      7.04183270
      1.12950000	      3.42927503	     -0.90191657	     -3.29902025	     -0.05716961	      0.98343949	      0.33296418	    -20.05979284	      3.54362361	     -0.14089043	    -16.11745434	      7.54442698	     -7.35079586	      4.04378588	     18.36628285	      0.94472450	     -3.92149376	     -5.86819826	     -4.79712364	     -7.81927092	      4.81890084	     -5.83366382	      3.67928645	      6.95627897
      1.13366667	      3.34792873	     -0.76109998	     -3.21633219	     -0.05101217	      0.98357823	      0.33252671	    -19.72885961	      3.40001563	     -0.22024739	    -17.14215825	      6.93382362	     -7.62464609	      4.19996378	     18.45497868	      1.14908466	     -3.77980417	     -6.51054165	     -5.13141940	     -8.15563576	      4.79770592	     -5.67094174	      3.50640846	      6.87415712
      1.13783333	      3.30200786	     -0.61432191	     -3.13116657	     -0.04484741	      0.98380448	      0.33208599	    -19.39975108	      3.24618511	     -0.31872788	    -18.21728150	      6.24787854	     -7.87726789	      4.38052084	     18.49051953	      1.36041224	     -3.64762122	     -7.13212465	     -5.42741765	     -8.42157940	      4.77997198	     -5.55041534	      3.31840824	      6.79732130
      1.14200000	      3.31441107	     -0.43255881	     -3.04798374	     -0.03864374	      0.98417106	      0.33161068	    -19.11270429	      3.04222664	     -0.43892699	    -19.30272143	      5.42896221	     -8.18786755	      7.89688980	     18.41206016	      1.62508398	     -3.44108959	     -7.65850844	     -5.80708163	     -8.94436099	      4.54517980	     -5.49529129	      3.08732107	      6.60428826
      1.14616667	      3.22328434	     -0.29913444	     -2.95491966	     -0.03250146	      0.98441051	      0.33114608	    -18.63781152	      2.89554205	     -0.58073317	    -20.53070917	      4.66073701	     -8.39797174	      7.97839226	     18.51917016	      1.80890147	     -3.37745136	     -8.34864758	     -5.91789614	     -8.94987196	      4.54159690	     -5.32057809	      2.92468846	      6.62433141
      1.15033333	      3.17456032	     -0.15435481	     -2.86423518	     -0.02636258	      0.98475496	      0.33067107	    -18.18736222	      2.73394106	     -0.69534776	    -21.77299203	      3.81180969	     -8.63397691	      8.13979769	     18.55415046	      2.01342492	     -3.28333180	     -8.99049603	     -6.07252871	     -9.12657720	      4.52894651	     -5.20355293	      2.74356112	      6.54541529
      1.15450000	      3.17170695	      0.01408576	     -2.78500242	     -0.02019957	      0.98520387	      0.33020031	    -17.74821217	      2.53178972	     -0.83757039	    -23.06466944	      2.86392485	     -8.85146565	      8.28012545	     18.48946299	      2.24419379	     -3.17728266	     -9.53953409	     -6.19476688	     -9.24850693	      4.51530760	     -5.12778216	      2.53433396	      6.47475189
      1.15866667	      3.15404456	      0.17976309	     -2.70139029	     -0.01407048	      0.98566384	      0.32971495	    -17.25226605	      2.32964819	     -0.98379850	    -24.40928057	      1.85779210	     -9.05719335	      8.45128536	     18.43912785	      2.47313369	     -3.06693746	    -10.08988361	     -6.28358150	     -9.38635212	      4.49587192	     -5.04211749	      2.32873609	      6.39269507
      1.16283333	      3.18257321	      0.36593801	     -2.62778573	     -0.00795515	      0.98621616	      0.32920128	    -16.77316316	      2.08616643	     -1.14665040	    -25.78145854	      0.74126720	     -9.34112322	     13.26121301	     18.30332209	      2.73475505	     -2.92206852	    -10.57203310	     -6.41030934	     -9.69226633	      3.89403194	     -5.01288711	      2.10030900	      6.13456111
      1.16700000	      3.19388505	      0.55454345	     -2.54097009	     -0.00186761	      0.98674798	      0.32870904	    -16.23613612	      1.84434341	     -1.32521400	    -27.21855165	     -0.34780631	     -9.52693423	     13.27615661	     18.20793575	      2.98465084	     -2.85623895	    -11.10793774	     -6.33890352	     -9.68336609	      3.89731852	     -4.97929458	      1.85303541	      6.17099336
      1.17116667	      3.19482842	      0.70949148	     -2.47046782	      0.00417292	      0.98730374	      0.32820524	    -15.64863609	      1.62472863	     -1.48222907	    -28.69371211	     -1.55315906	     -9.69764133	     13.32260604	     18.08768669	      3.19967936	     -2.76854097	    -11.57105915	     -6.29903982	     -9.72119549	      3.89246251	     -4.91188655	      1.68153821	      6.12469103
